<svg width="823" height="695" viewBox="0 0 823 695" fill="none" xmlns="http://www.w3.org/2000/svg">
<path fill-rule="evenodd" clip-rule="evenodd" d="M520.816 461.242C519.209 484.815 487.222 497.071 467.821 502.1C471.71 478.975 476.732 455.002 473.607 431.549C472.579 423.824 471.229 416.14 469.779 408.484C469.243 405.653 468.69 402.825 468.117 400.001C467.978 399.314 466.853 396.309 467.211 395.624C467.852 394.399 473.279 394.591 474.662 394.645C478.225 394.781 481.722 395.682 484.982 397.106C491.835 400.098 497.608 405.249 502.364 410.935C513.582 424.342 522.029 443.466 520.816 461.242ZM483.783 301C465.214 311.996 442.846 317.897 421.666 320.773C389.401 325.155 356.457 320.111 324.913 313.121C317.168 311.405 309.439 309.555 301.808 307.384C301.464 329.739 307.753 350.998 320.036 369.641C330.191 385.055 343.444 397.937 355.028 412.215C365.812 425.506 374.51 440.499 374.942 458.042C375.122 465.363 374.52 472.062 368.39 476.806C362.23 481.574 353.91 483.342 346.372 484.428C327.498 487.148 307.73 485.678 288.974 482.684C285.332 482.102 281.697 481.44 278.103 480.612C274.022 479.673 272.592 478.566 269.184 481.629C261.829 488.239 258.455 498.153 256.789 507.637C253.667 525.399 254.726 546.12 259.226 563.644C263.562 580.525 284.024 589.881 299.183 593.961C344.907 606.266 395.354 589.272 430.439 559.02C431.203 558.36 431.962 557.692 432.703 557.004C435.195 562.193 437.916 567.291 440.89 572.219C442.959 575.648 445.137 579.094 447.746 582.146C448.688 583.247 449.794 584.736 451.082 585.458C453.48 586.801 455.918 585.814 458.632 585.342C478.657 581.865 498.635 577.292 517.676 570.091C546.623 559.143 572.585 541.107 586.305 512.617C593.236 498.226 596.849 482.458 598.598 466.645C600.605 448.489 601.039 429.929 595.929 412.233C586.567 379.803 562.68 353.513 536.521 333.236C520.335 320.688 502.54 309.35 483.783 301Z" fill="#C2BCFA"/>
<path fill-rule="evenodd" clip-rule="evenodd" d="M810.98 86.2524C806.748 87.9343 802.191 88.4021 797.689 88.7312C794.157 88.9887 791.385 90.4049 788.057 90.4847C778.791 90.7059 769.485 91.1221 760.264 92.5066C751.002 93.8983 742.472 92.0814 735.159 99.04C732.556 101.516 729.293 104.363 730.858 108.36C731.575 110.19 732.586 111.503 733.182 113.468C733.856 115.689 734.694 117.787 735.668 119.902C737.537 123.958 746.899 139.064 739.302 140.912C731.066 142.915 719.896 140.574 711.962 138.282C707.333 136.945 702.777 135.378 698.215 133.834C694.603 132.612 689.858 131.919 686.53 130.005C684.322 128.734 683.865 126.566 682.406 124.506C679.752 120.759 677.272 117.568 673.842 114.45C666.728 107.983 657.833 103.592 649.062 99.7327C648.496 99.4825 647.462 98.8986 646.851 98.8415C646.191 98.7798 645.464 99.4598 645.037 99.3773C643.868 99.1497 643.46 98.4144 642.18 97.6873C640.46 96.7108 633.449 93.4622 632.223 96.0163C633.37 92.6607 634.208 93.629 637.313 94.1159C638.681 94.3317 639.596 93.7052 640.825 93.7678C641.957 93.8249 642.422 94.4695 643.368 94.6436C645.101 94.9618 646.715 94.7225 648.524 94.7089C649.01 93.6363 649.7 93.6444 650.593 94.7324C651.092 94.8938 651.591 95.0552 652.089 95.2175C653.891 95.7116 655.817 95.6174 657.661 95.7624C660.432 95.9818 667.651 99.3601 669.041 95.941C670.523 92.2899 666.021 91.3796 665.27 88.8319C664.538 86.3322 667.968 84.8652 669.344 83.3556C670.913 81.6393 671.87 80.1324 673.71 78.6201C674.788 77.7324 676.201 76.9047 677 75.7224C677.736 74.6344 677.703 72.8754 678.657 71.9688C679.794 70.888 679.969 71.636 681.003 71.1138C683.03 70.0883 682.135 70.14 683.334 68.7383C684.359 67.5397 685.116 67.576 686.458 66.6575C688.422 65.3129 689.113 62.6854 691.021 61.2402C692.417 60.1821 694.641 60.1839 695.866 59.085C696.588 58.4377 696.365 57.3887 696.989 56.7776C698.187 55.6034 699.007 56.0803 700.502 55.6932C703.023 55.0404 703.839 53.6468 705.695 52.033C707.391 50.5596 708.467 50.566 710.59 49.9549C713.489 49.1208 715.363 46.9357 717.979 45.6519C720.443 44.4442 722.987 43.5974 725.479 42.3108C727.279 41.3815 729.013 40.8048 730.656 39.8564C731.211 39.5364 731.259 38.3641 731.975 38.2054C732.797 38.0223 733.454 39.3886 734.329 39.4602C736.161 39.6107 738.247 37.578 739.451 36.4011C739.974 35.8898 740.681 34.5071 741.355 34.2215C742.762 33.6231 743.602 34.8081 744.857 34.3403C746.618 33.6839 745.918 31.7617 746.997 30.7018C747.94 29.777 749.944 29.8396 751.62 30.1324C758.37 31.3093 747.864 36.0784 745.889 37.0431C742.566 38.6678 718.388 50.4871 724.044 56.3814C727.037 59.4994 734.343 57.1547 737.596 56.3333C743.3 54.8926 749.245 52.1191 755.095 51.4826C755.818 51.4038 757.976 51.9215 758.564 51.6957C759.893 51.1871 759.562 50.1698 760.642 49.6348C762.269 48.8315 765.592 48.8705 767.243 49.051C768.534 49.1924 769.948 49.9631 771.261 49.8588C772.707 49.7436 774.104 48.9023 775.539 48.6312C777.993 48.1688 780.534 48.3954 783.013 48.4671C786.578 48.5713 793.705 49.1099 788.525 53.8463C784.333 57.6797 777.081 59.3389 771.793 61.0117C763.97 63.4842 756.285 65.7336 748.563 68.5506C743.301 70.4691 732.077 73.8392 738.341 81.0309C738.96 80.447 739.578 79.864 740.195 79.2801C740.926 80.0191 741.681 81.457 742.851 81.4987C743.825 81.5332 743.467 80.4869 744.387 80.1596C747.281 79.1332 751.247 79.2112 754.298 79.0181C761.941 78.5339 769.557 77.5212 777.21 77.2075C784.418 76.9119 791.702 77.2963 798.768 78.8078C800.586 79.1967 817.533 83.6475 810.98 86.2524ZM748.478 160.203C748.862 163.413 747.438 166.01 747.042 169.111C746.564 172.86 746.915 176.162 745.852 179.889C743.786 187.134 742.317 194.546 740.1 201.749C736.185 214.467 729.864 225.699 723.364 237.238C720.049 243.121 715.056 247.979 710.493 252.9C705.817 257.943 702.081 262.907 696.491 267.048C685.32 275.324 673.266 282.685 660.041 287.156C646.199 291.837 631.642 293.255 617.102 292.66C610.65 292.396 603.81 293.049 597.46 292.006C590.708 290.895 583.391 289.532 576.755 287.892C564.573 284.885 552.836 279.779 540.939 275.22C527.653 270.127 515.691 263.626 503.576 256.282C500.37 254.339 496.982 253.432 493.977 251.08C491.442 249.099 488.949 247.204 486.284 245.394C483.225 243.318 480.297 241.048 477.173 239.075C475.305 237.895 472.678 236.741 471.698 234.606C470.349 231.669 471.975 227.981 472.815 225.132C473.909 221.424 475.073 217.762 476.388 214.127C478.615 207.972 484.282 198.479 481.165 191.972C474.594 196.043 471.696 204.046 468.887 210.849C465.532 218.977 463.19 227.085 462.684 235.9C461.668 253.632 464.635 272.296 471.068 288.83C472.024 291.285 473.703 293.948 472.469 296.575C471.174 299.331 467.66 301.659 464.959 302.851C456.414 306.62 447.835 307.718 438.911 309.803C436.481 310.37 433.821 312.075 431.541 312.29C430.002 312.435 428.73 311.93 426.967 311.942C425.197 311.954 423.812 312.945 422.228 313.051C420.845 313.145 419.618 312.336 418.299 312.412C415.349 312.584 414.805 317.641 413.342 313.189C413.077 313.372 411.612 315.033 411.428 315.033C411.011 315.034 410.276 313.796 409.878 313.576C409.102 313.146 408.08 313.121 407.213 313.009C405.3 312.76 403.237 312.735 401.352 313.174C397.858 313.988 394.345 313.645 391.357 313.586C390.678 313.573 390.196 314.12 389.351 314.088C388.966 314.072 388.412 313.391 388.003 313.286C385.641 312.677 383.189 313.132 380.784 312.999C375.131 312.687 369.673 312.536 364.154 311.287C352.842 308.726 341.309 308.213 329.952 305.871C324.166 304.677 318.514 304.026 312.817 302.453C310.815 301.9 308.763 301.639 306.989 300.885C305.295 300.164 305.961 299.204 303.332 301.132C302.151 298.237 302.011 298.532 299.16 297.575C298.057 297.204 295.523 296.284 294.702 295.555C294.62 295.482 292.865 291.075 292.714 290.533C291.983 287.901 292.592 284.892 292.897 282.243C293.586 276.271 294.582 270.346 294.641 264.326C294.667 261.671 295.146 261.594 295.972 259.593C296.227 258.973 296.978 259.022 297.041 258.078C297.125 256.819 295.837 255.943 295.976 254.473C296.161 252.495 298.147 250.491 298.844 248.648C299.682 246.429 299.671 244.082 300.171 241.785C300.84 238.729 302.132 235.861 302.783 232.792C303.338 230.193 303.39 228.126 304.774 225.896C306.159 223.67 305.751 221.853 306.854 219.636C307.866 217.603 309.147 216.873 309.839 214.418C311.517 208.479 314.067 202.599 317.679 197.564C320.856 210.189 324.236 223.232 333.082 233.212C336.726 237.321 341.43 241.467 346.924 242.719C353.136 244.134 358.104 240.47 362.149 236.13C371.787 225.787 375.779 214.242 376.361 200.218C376.506 196.732 376.485 193.241 376.438 189.753C376.416 188.201 375.62 184.217 376.684 182.912C377.85 181.481 381.178 182.375 382.91 181.432C385.039 180.27 387.379 177.163 386.429 174.601C392.105 177.171 397.532 180.554 403.844 181.27C406.343 181.554 409.004 181.122 411.239 181.003C411.172 181.006 412.969 181.373 413.077 181.397C413.52 180.886 414 180.762 414.516 181.024C414.975 181.072 415.309 181.319 415.519 181.764C424.516 182.663 433.575 178.217 441.276 173.508C445.775 170.756 450.717 166.683 451.98 161.326C452.431 159.415 452.041 157.614 454.017 156.639C455.622 155.845 458.722 156.99 460.416 157.114C466.375 157.551 472.247 156.985 478.065 158.761C481.615 159.845 487.813 167.44 490.289 162.097C491.363 163.105 490.78 164.9 491.923 165.881C492.92 166.736 496.271 167.338 497.649 168.07C499.784 169.202 501.036 170.709 502.905 172.07C505.201 173.743 507.605 173.872 509.827 175.835C517.526 182.633 526.544 187.557 535.14 193.195C545.339 199.883 554.365 207.767 565.309 213.222C576.502 218.8 587.332 223.46 599.563 226.362C605.111 227.679 610.801 228.778 616.497 229.184C619.183 229.374 621.746 229.278 624.337 230.084C625.911 230.574 626.42 230.819 627.966 230.864C628.867 230.89 630.171 230.37 631.281 230.39C633.56 230.431 634.724 230.337 636.781 231.091C639.108 231.944 641.043 232.457 643.693 232.53C646.741 232.616 648.536 231.445 651.305 230.723C653.537 230.141 655.547 230.419 657.544 229.21C666.422 223.84 673.555 215.639 678.211 206.329C683.556 195.644 687.674 182.618 688.512 170.644C688.991 163.79 687.479 157.106 684.862 150.813C684.123 149.038 679.691 141.477 681.056 140.104C682.606 138.543 687.674 142.12 689.103 142.897C693.636 145.361 701.823 146.15 705.001 150.295C705.81 148.742 710.311 151.044 711.755 151.692C712.949 152.228 713.287 153.197 714.79 153.313C716.206 153.422 717.667 152.293 718.968 151.933C718.017 154.586 721.214 154.71 723.405 154.851C724.982 154.952 726.678 154.704 728.083 154.604C730.772 154.413 730.816 153.809 733.272 152.431C733.176 153.44 733.286 154.426 733.599 155.388C735.177 153.103 738.189 154.69 740.322 153.686C738.781 151.347 745.362 150.706 746.895 151.198C750.753 152.437 748.137 157.359 748.478 160.203ZM446.367 320.969C448.913 320.21 451.475 319.516 454.028 318.791C452.094 320.566 450.085 323.769 447.323 324.269C443.991 324.87 442.679 322.068 446.367 320.969ZM320.682 322.241C324.968 322.754 329.636 322.361 333.392 324.892C331.561 326.998 330.372 329.203 327.318 327.995C324.752 326.981 322.64 324.088 320.682 322.241ZM463.872 437.569C461.058 435.045 461.429 433.916 462.751 430.649C463.319 429.244 464.219 424.875 466.354 426.155C467.112 426.609 468.03 431.369 468.166 432.334C468.468 434.49 467.134 440.495 463.872 437.569ZM479.745 422.912C478.751 419.258 478.785 415.28 477.808 411.537C476.777 407.584 475.508 403.618 475.144 399.533C490.014 402.16 498.459 416.918 504.9 429.234C508.322 435.778 511.678 443.016 512.969 450.332C514.228 457.461 512.043 462.874 509.504 469.227C508.21 472.471 506.071 473.596 503.574 475.739C501.361 477.638 500.532 480.842 498.226 482.548C496.523 483.809 494.309 484.463 492.528 485.736C490.768 486.993 489.008 488.239 487.192 489.414C485.115 490.755 478.893 495.647 476.09 494.603C473.991 493.822 474.926 491.254 475.455 489.644C476.568 486.25 477.35 482.982 478.037 479.444C479.872 470.004 480.866 460.622 481.342 451.02C481.806 441.644 482.239 432.065 479.745 422.912ZM467.308 465.492C467.531 465.956 468.46 469.919 466.387 469.105C464.947 468.538 467.097 466.22 467.308 465.492ZM476.069 308.14C477.824 307.415 478.526 309.56 480.07 309.624C482.118 309.709 482.548 307.431 484.697 307.364C489.952 307.199 497.566 312.277 501.839 314.927C499.747 317.572 498.884 320.278 499.924 323.534C500.841 326.403 504.342 329.611 504.214 332.651C504.083 335.699 500.293 337.662 499.112 340.374C498.026 342.865 497.612 347.847 500.964 348.945C506.73 350.834 508.049 340.034 512.418 339.95C514.286 339.915 516.714 343.427 518.057 344.521C521.066 346.97 524.459 348.759 527.958 350.385C530.32 351.482 533.608 353.645 535.359 350.695C536.763 348.333 535.616 344.589 534.252 342.556C532.687 340.224 518.664 329.55 519.549 328.61C520.021 328.108 523.513 329.491 524.008 329.911C525.126 330.857 525.537 332.398 526.658 333.406C528.368 334.945 530.578 335.554 532.693 336.266C537.107 337.749 539.901 342.967 544.179 345.397C546.647 346.798 548.153 349.489 550.241 351.573C552.974 354.301 555.759 357.16 555.348 361.177C555.062 363.961 554.649 370.445 553.075 372.794C551.366 375.343 548.523 374.366 545.926 374.968C543.005 375.645 540.668 377.924 541.25 381.18C541.854 384.565 544.561 384.807 547.389 384.892C555.365 385.133 552.428 390.198 555.209 395.761C556.72 398.782 559.241 399.968 560.975 396.432C562.372 393.587 559.877 389.102 561.393 386.673C563.239 383.712 573.12 384.518 575.181 386.817C576.743 388.561 577.571 390.959 579.129 392.783C581.493 395.552 582.465 399.434 583.884 402.829C585.39 406.434 586.704 410.091 587.857 413.826C588.668 416.45 590.418 420.604 586.228 418.363C583.301 416.799 581.115 413.269 577.407 413.157C573.739 413.047 571.649 416.857 572.721 420.17C573.757 423.376 578.486 424.788 579.033 428.039C579.635 431.595 573.544 435.223 571.695 437.838C567.436 443.858 570.998 450.636 577.978 445.525C580.452 443.714 583.043 440.06 585.834 438.916C590.249 437.104 590.223 443.815 592.338 446.285C593.477 447.613 593.888 446.263 593.214 448.249C592.965 448.981 591.704 449.21 591.562 450.12C591.46 450.787 592.058 451.14 592.078 451.656C592.148 453.406 592.152 453.664 591.758 455.566C591.323 457.674 591.481 460.294 591.35 462.437C591.049 467.334 590.985 472.011 590.47 476.906C590.185 479.63 589.587 485.18 592.803 486.508C591.658 488.302 590.134 493.292 587.884 492.917C588.067 494.098 587.964 495.607 589.111 496.379C589.386 495.659 589.66 494.939 589.933 494.218C590.564 495.864 590.01 496.054 589.972 497.175C590.019 495.787 588.706 499.11 589.416 498.7C588.812 499.205 588.016 499.493 587.108 500.147C585.84 501.059 585.172 502.319 584.188 503.553C582.407 505.783 582.51 508.036 580.951 510.362C578.739 513.661 575.901 516.918 573.571 520.215C571.674 522.899 568.059 524.446 566.539 527.331C565.572 529.166 565.187 531.3 563.538 532.59C561.176 534.438 558.018 536.179 555.452 538.088C553.838 539.287 552.611 540.952 551.001 542.116C550.185 542.706 547.731 543.304 547.727 544.505C544.638 543.64 542.45 540.484 540.021 538.564C538.398 537.28 534.532 535.613 534.765 533.041C534.957 530.936 537.949 528.325 538.638 526.118C539.223 524.249 540.037 520.761 538.42 519.163C535.028 515.813 531.182 523.004 529.361 524.918C525.605 528.866 524.008 524.885 520.92 522.018C515.987 517.439 512.886 522.19 514.622 527.892C515.502 530.778 518.851 533.352 519.068 536.3C519.307 539.54 515.797 541.167 514.408 543.755C513.097 546.196 512.491 550.484 514.956 552.504C517.675 554.732 520.039 552.096 521.817 550.04C523.198 548.442 524.733 544.927 526.976 544.727C529.786 544.478 534.394 549.582 536.532 551.157C533.284 552.097 531.329 554.817 528.583 556.559C525.04 558.807 520.093 559.339 516.128 560.882C512.392 562.337 509.031 563.521 505.474 565.325C501.253 567.465 496.09 568 491.62 569.558C487.63 570.95 483.844 572.902 479.768 574.051C475.174 575.346 470.407 576.125 465.774 577.296C461.813 578.296 457.167 579.258 453.086 579.265C448.956 579.272 449.042 576.716 447.722 573.309C446.153 569.263 443.555 565.711 441.898 561.763C440.321 558.008 442.702 556.582 444.986 553.709C447.137 551.001 446.568 550.577 449.342 552.479C452.994 554.981 455.406 553.288 458.247 550.41C460.775 547.853 461.703 545.726 465.34 547.508C468.98 549.29 472.447 552.19 476.357 553.353C479.438 554.268 481.733 553.603 482.249 550.233C482.806 546.592 480.73 544.008 478.113 541.845C476.121 540.201 471.77 538.249 471.042 535.58C470.275 532.769 474.315 528.666 474.747 525.522C475.291 521.552 473.582 518.634 469.816 521.382C467.084 523.375 465.266 527.698 461.473 527.966C462.526 523.547 464.811 519.62 466.771 515.57C468.414 512.181 469.823 508.332 474.233 507.954C475.663 507.832 476.593 507.981 477.957 507.735C479.758 507.411 482.202 507.153 484.128 506.667C488.658 505.522 492.659 502.024 496.83 500.019C497.787 502.593 499.48 509.924 503.375 505.644C506.255 502.478 503.064 497.029 505.718 493.507C511.193 486.24 523.117 491.576 530.31 487.829C533.441 486.198 535.99 480.996 531.575 479.427C528.995 478.511 521.546 481.894 519.994 479.4C518.887 477.621 523.524 470.673 524.084 468.763C525.828 462.819 525.545 456.648 525.545 450.526C529.045 451.958 533.474 455.31 537.246 455.769C541.124 456.24 541.806 451.686 540.79 448.695C539.389 444.574 534.722 441.197 531.523 438.542C530.113 437.373 526.42 435.489 525.647 433.71C524.849 431.873 525.992 430.983 526.888 429.387C528.288 426.892 531.68 420.443 527.989 418.106C524.594 415.955 522.689 421.983 520.526 423.272C516.856 425.46 515.598 420.448 514.139 417.897C511.49 413.266 507.819 409.133 504.524 404.966C501.524 401.173 499.676 398.606 499.238 393.773C498.906 390.112 498.158 387.278 502.474 386.446C510.126 384.972 521.329 388.605 527.545 382.378C530.805 379.113 528.476 375.737 524.36 375.905C518.953 376.126 513.812 376.393 508.37 375.954C505.477 375.721 499.429 376.424 497.968 373.442C496.088 369.602 499.276 363.433 495.814 360.068C491.395 355.771 490.312 365.482 490.166 368.163C490.058 370.117 490.559 373.091 489.344 374.781C488.209 376.357 486.136 376.334 484.459 376.904C480.235 378.34 478.053 383.531 483.657 384.629C485.542 384.999 488.171 384.461 489.738 385.859C491.378 387.322 490.752 389.922 490.905 391.894C486.98 387.343 478.819 389.36 473.503 387.67C470.703 386.78 470.23 385.594 469.052 382.882C467.627 379.6 464.378 375.45 464.253 371.821C464.148 368.74 466.714 366.421 467.911 363.765C468.939 361.486 469.869 357.777 469.717 355.22C469.35 349.052 458.224 355.348 455.932 357.708C451.773 361.991 446.645 367.531 448.9 373.598C450.911 379.011 451.978 382.08 445 381.655C442.446 381.499 437.082 382.005 435.1 380.926C433.629 380.126 434.182 378.69 434.133 376.61C434.092 374.808 434.228 372.077 433.072 370.502C429.002 364.964 428.05 378.746 425.764 380.239C422.194 382.574 414.635 380.127 415.218 387.056C415.729 393.119 423.922 390.643 426.189 395.859C427.28 398.372 427.048 401.297 428.423 403.722C430.382 407.178 432.793 406.994 434.092 403.391C435.004 400.86 433.788 398.259 434.49 395.871C435.503 392.418 440.327 392.738 443.295 392.348C446.902 391.873 450.046 390.965 453.477 389.855C457.71 388.485 457.48 390.734 458.169 393.99C458.969 397.768 460.191 401.41 460.941 405.244C461.639 408.817 463.492 412.665 463.794 416.241C464.024 418.975 463.098 418.725 460.835 420.303C458.36 422.027 455.637 426.509 452.766 427.246C448.447 428.355 444.094 418.48 440.165 423.533C438.477 425.702 439.13 430.321 440.33 432.562C441.915 435.523 444.829 436.276 442.387 439.668C440.551 442.216 438.244 444.19 438.072 447.619C437.911 450.802 440.075 453.813 443.459 452.878C446.193 452.124 447.809 449.323 449.88 447.623C453.453 444.688 456.387 447.407 460.045 449.068C462.924 450.376 468.216 451.229 469.66 454.305C471.494 458.208 469.143 459.717 465.737 458.607C467.064 462.971 465.317 465.506 464.838 470.016C464.45 473.667 463.611 477.007 463.076 480.537C462.366 485.25 462.291 484.739 457.441 484.899C453.321 485.035 449.315 484.925 445.2 484.744C441.575 484.585 439.109 484.913 438.946 480.537C438.874 478.606 440.091 472.059 436.286 472.845C432.935 473.537 433.9 479.519 432.779 481.767C431.158 485.021 428.415 484.026 425.364 484.829C422.26 485.647 419.751 487.939 420.551 491.481C421.407 495.262 424.872 494.999 427.884 495.874C432.522 497.22 431.505 504.044 434.212 507.751C435.317 509.263 436.48 510.791 438.335 509.55C441.736 507.273 438.525 501.711 439.424 498.92C440.369 495.985 443.556 496.586 446.568 496.205C451.015 495.644 455.669 493.499 460.099 493.525C459.25 496.082 456.87 497.568 456.014 500.26C455.554 501.703 455.983 504.398 455.345 505.591C454.66 506.873 452.499 507.257 451.605 509.04C450.435 511.375 450.074 513.876 448.705 516.163C445.469 521.571 442.682 527.1 439.242 532.453C435.69 537.981 431.862 543.242 427.394 548.034C423.059 552.684 421.766 550.432 418.041 546.631C416.525 545.084 413.304 543.293 412.883 540.983C412.466 538.705 414.35 536.847 415.381 534.993C416.749 532.535 419.218 528.306 418.616 525.357C417.487 519.819 412.537 524.918 410.66 526.991C407.382 530.612 405.55 534.42 400.596 531.56C397.425 529.728 393.426 524.715 389.264 526.569C385.475 528.257 386.536 533.133 388.867 535.607C390.173 536.993 392.033 537.786 393.418 539.083C396.4 541.879 394.712 542.638 393.351 545.769C392.237 548.333 392.076 553.372 394.129 555.508C398.17 559.708 401.294 551.235 405.044 551.062C406.822 550.981 414.211 555.83 414.738 557.576C415.662 560.639 407.69 564.297 405.572 565.735C400.645 569.079 395.278 572.488 389.736 574.705C383.196 577.322 388.07 569.076 384.495 566.336C379.845 562.772 379.485 572.536 379.008 574.962C377.74 581.414 370.925 581.582 365.427 583.182C361.927 584.201 358.424 585.283 354.888 586.169C351.887 586.921 348.527 586.903 345.618 587.834C343.067 588.651 341.321 590.308 338.468 590.327C337.54 590.334 336.734 590.019 335.839 589.998C334.035 589.954 332.381 590.986 330.656 590.879C327.788 590.7 329.036 589.796 328.037 587.794C327.1 585.916 324.717 585.226 322.861 584.639C317.542 582.958 313.114 584.431 312.342 577.668C312.104 575.591 312.418 567.063 308.467 568.06C303.853 569.222 307.913 579.358 305.049 581.898C303.655 583.134 301.551 582.517 299.871 582.883C297.113 583.482 295.904 585.565 292.885 585.425C290.338 585.308 287.967 584.177 285.747 583.054C282.438 581.379 278.49 580.27 275.731 577.715C271.949 574.211 270.29 568.757 268.678 564.021C266.306 557.045 265.295 550.094 264.914 542.779C264.781 540.229 263.698 538.431 263.245 536.091C262.764 533.603 264.186 533.104 264.513 530.747C264.831 528.455 264.677 526.007 265.159 523.551C265.852 520.02 266.094 516.408 266.766 512.866C267.878 507.009 269.564 501.192 270.948 495.388C271.378 493.584 272.157 487.804 274.382 487.249C276.024 486.839 279.815 489.284 281.337 490.002C284.345 491.421 286.931 493.381 290.151 494.364C291.811 494.871 293.908 494.821 294.998 496.363C296.721 498.804 295.328 503.584 296.042 506.468C296.916 509.999 299.81 511.501 302.142 507.954C303.385 506.064 303.054 503.809 303.221 501.719C303.459 498.705 303.512 497.976 306.773 498.179C310.076 498.386 313.301 499.633 316.688 499.785C319.742 499.921 322.811 499.837 325.862 499.67C333.271 499.264 340.047 498.059 346.995 495.421C351.702 493.634 357.16 489.727 362.347 489.865C369.669 490.059 367.687 496.838 368.69 501.909C369.3 504.996 374.461 514.47 376.444 506.781C377.424 502.977 374.157 497.432 376.093 493.997C378.379 489.938 386.782 493.306 390.605 492.366C393.699 491.605 398.87 487.218 396.685 483.433C395.65 481.64 393.64 481.98 391.848 481.846C388.451 481.592 385.077 481.128 381.708 480.632C379.792 480.35 376.863 480.185 376.097 477.984C375.447 476.116 378.496 471.272 379.158 469.485C381.346 463.568 382.135 458.756 382.144 452.304C382.146 449.397 382.336 446.329 381.869 443.453C381.697 442.399 380.116 438.958 380.856 437.951C381.852 436.596 383.89 438.316 384.708 439.331C386.333 441.354 385.768 441.192 384.844 443.288C383.484 446.371 380.841 452.837 385.324 455.21C390.012 457.692 391.706 449.304 396.148 450.224C398.219 450.653 400.263 453.376 401.932 454.648C403.886 456.138 405.995 457.718 408.291 458.632C412.058 460.132 416.291 459.008 414.769 454.27C413.569 450.534 409.772 447.409 407.057 444.76C402.732 440.541 402.928 438.768 405.916 433.798C407.167 431.718 411.969 422.886 406.403 422.168C403.457 421.787 400.271 426.564 398.715 428.392C396.044 431.529 394.513 432.876 390.539 430.357C386.655 427.895 384.852 425.837 380.154 425.61C374.749 425.349 372.317 417.227 369.452 413.056C361.667 401.726 349.749 396.122 339.7 387.441C334.803 383.21 331.496 377.675 327.772 372.467C325.999 369.986 323.709 367.926 322.264 365.223C321.355 363.523 318.892 359.426 319.533 357.42C320.331 354.923 324.638 353.382 326.43 351.618C327.933 350.139 328.736 348.294 331.101 348.859C333.206 349.363 335.103 352.212 336.824 353.464C338.513 354.693 340.419 355.833 342.292 356.752C345.68 358.414 349.77 359.302 349.969 354.248C350.142 349.875 346.154 345.192 343.273 342.242C341.177 340.095 338 338.229 338.416 334.82C338.621 333.129 340.057 330.119 340.895 328.701C343.784 323.82 352.604 326.798 357.397 327.111C363.172 327.489 369.539 326.519 374.129 330.605C375.626 331.938 379.096 334.556 379.831 336.411C380.686 338.57 379.289 339.541 378.513 341.631C377.509 344.331 376.819 349.664 379.708 351.526C384.53 354.633 387.044 345.416 392.057 347.432C396.81 349.344 400.133 354.841 405.559 355.711C412.66 356.849 408.616 348.047 406.159 345.457C402.972 342.099 396.792 338.627 398.815 333.662C399.393 332.243 400.714 329.283 401.902 328.402C404.228 326.677 407.977 327.624 410.64 327.652C417.362 327.724 423.706 327.171 430.293 325.996C432.279 325.641 432.731 325.36 434.13 326.84C436.068 328.886 437.085 331.554 439.339 333.566C436.083 337.075 431.257 341.218 433.521 346.62C435.468 351.268 439.738 348.988 442.627 346.505C443.984 345.339 445.385 342.871 447.183 342.403C449.517 341.795 452.14 343.916 454.051 344.992C456.919 346.609 463.052 351.401 466.31 348.572C470.618 344.83 465.52 339.2 462.552 336.889C460.757 335.491 458.366 334.494 456.856 332.769C454.845 330.473 456.024 330.136 457.242 328.067C459.471 324.281 458.654 319.405 462.22 316.448C464.197 314.808 467.024 313.777 469.282 312.575C471.504 311.39 473.889 309.041 476.069 308.14ZM512.401 322.863C511.534 322.332 510.667 321.801 509.8 321.269C511.782 320.303 513.09 320.418 512.401 322.863ZM560.245 368.864C560.594 367.097 561.957 363.936 563.833 365.589C565.041 366.651 563.721 370.64 566.595 369.537C566.743 372.078 564.85 371.862 567.642 374.123C564.12 373.715 559.258 373.874 560.245 368.864ZM423.534 583.077C424.421 580.697 424.414 577.007 427.144 579.182C427.287 576.3 426.605 567.161 431.837 567.532C433.97 567.683 433.946 569.565 434.51 571.195C435.493 574.038 437.153 576.628 438.551 579.278C433.36 579.488 428.165 580.676 423.534 583.077ZM425.234 615.924C428.201 618.166 429.688 615.519 432.489 614.553C435.074 613.662 437.757 614.196 440.621 613.563C444.173 612.779 448.356 612.898 451.826 612.867C452.681 612.86 454.469 612.995 455.333 613.095C456.907 613.275 456.766 613.601 458.396 614.039C459.025 613.894 459.66 613.788 460.302 613.723C461.088 613.689 461.708 614.014 462.162 614.699C463.627 615.187 464.16 614.862 465.563 615.204C468.904 616.02 471.398 618.033 473.58 620.702C478.023 626.134 478.155 634.298 478.053 641.022C478.024 642.937 477.878 644.842 478.09 646.752C478.283 648.504 479.521 651.151 479.016 652.893C478.249 655.528 475.876 654.935 473.112 655.053C471.485 655.123 469.861 656.172 468.566 656.266C467.314 656.356 466.809 655.894 465.542 655.61C462.235 654.87 458.333 655.926 455.071 656.826C451.724 657.75 448.789 658.661 445.395 659.315C443.186 659.74 441.199 659.982 438.971 660.26C437.144 660.489 436.356 661.451 434.762 661.847C433.225 662.228 431.726 661.657 430.176 661.957C428.061 662.366 426.588 663.917 424.662 664.689C422.007 665.754 417.763 664.163 416.586 667.446C416.126 664.28 413.089 665.14 410.828 664.86C407.103 664.398 403.432 662.726 399.849 661.661C396.911 660.788 386.753 652.736 384.808 656.004C384.811 655.674 385.164 653.802 384.857 653.586C383.773 652.824 383.782 653.243 382.615 652.766C380.83 652.036 380.078 651.377 378.802 650.146C376.221 647.659 372.748 646.358 370.03 644.102C363.2 638.433 360.862 626.756 359.197 618.628C357.017 622.491 357.819 617.534 358.196 615.877C359.088 611.969 357.941 610.041 357.682 606.266C357.443 602.792 359.026 602.105 362.162 601.742C366.025 601.294 369.743 600.669 373.527 599.705C377.14 598.784 380.681 597.745 383.941 595.913C386.925 594.237 390.056 593.578 393.107 592.111C396.472 590.492 399.772 588.79 403.167 587.214C404.697 586.504 411.435 581.419 412.605 581.729C415.006 582.365 412.739 586.57 412.007 587.674C410.126 590.508 407.037 591.822 404.251 593.606C401.738 595.213 394.117 602.83 401.854 602.066C406.981 601.56 410.454 596.186 413.734 602.31C414.892 604.473 416.596 606.208 415.265 608.443C413.406 611.561 408.044 613.047 405.233 615.145C402.837 616.933 397.935 625.364 402.875 626.268C404.295 626.527 406.484 626.191 407.54 625.087C408.252 624.343 408.202 622.811 408.922 622.302C409.943 621.579 411.926 622.474 413.091 622.078C414.751 621.513 415.141 620.607 415.751 619.012C417.524 619.821 417.549 620.906 419.573 619.863C420.244 619.517 420.491 618.247 421.268 617.908C422.312 617.453 422.623 618.945 423.196 618.725C424.748 618.13 424.742 617.459 425.234 615.924ZM318.821 591.128C315.848 591.351 312.601 591.59 310.064 589.695C313.147 589.881 315.865 590.577 318.954 589.94C320.182 589.687 322.148 588.528 323.406 588.931C327.877 590.365 320.011 591.038 318.821 591.128ZM310.564 329.575C310.52 328.529 309.633 314.459 314.439 319.986C315.755 321.498 314.336 323.523 314.149 325.195C313.833 328.013 314.821 330.838 316.305 333.21C317.69 335.423 320.276 337.361 319.889 340.247C319.549 342.779 316.994 344.941 315.735 347.042C312.639 342.162 310.813 335.448 310.564 329.575ZM300 181.91C288.863 183.082 277.782 185.156 267.044 188.357C256.501 191.499 246.673 196.412 236.766 201.119C234.724 192.376 232.586 183.656 230.569 174.906C229.599 170.695 228.672 166.473 227.764 162.247C227.117 159.243 224.766 153.641 225.747 150.686C226.268 149.12 226.955 149.113 228.075 148.146C228.759 147.556 229.951 146.112 230.66 145.803C232.388 145.052 236.822 144.394 238.589 144.501C240.2 144.598 241.042 145.238 242.699 144.775C244.11 144.381 245.295 143.295 246.619 142.7C249.988 141.185 254.194 140.677 257.797 139.875C261.265 139.104 264.845 138.932 268.321 138.168C271.365 137.498 272.812 135.257 275.409 135.338C282.167 135.549 289.64 134.757 296.345 133.142C303.868 131.331 312.052 131.681 319.77 131.487C322.845 131.41 325.006 130.718 325.022 134.142C325.04 138.32 323.371 143.011 322.52 147.09C320.631 156.134 319.032 164.925 318.318 174.108C317.961 178.702 316.078 178.381 312.344 179.79C308.19 181.357 304.419 181.446 300 181.91ZM241.445 274.698C244.189 275.103 243.874 267.597 244.075 266.071C250.618 278.41 257.987 290.285 263.751 303.029C265.098 306.009 266.322 309.058 267.746 312.002C268.72 314.018 270.9 316.724 270.848 319.069C270.792 321.516 268.816 322.432 266.733 323.339C264.482 324.319 263.603 324.808 262.016 323.675C260.096 322.302 258.493 318.074 257.307 316.036C255.496 312.925 253.762 309.768 251.988 306.636C248.775 300.957 244.983 295.52 242.343 289.559C239.87 283.974 236.128 279.168 233.462 273.682C230.822 268.249 227.209 263.098 224.174 257.78C227.222 256.512 231.021 253.343 234.484 253.519C238.061 253.701 237.974 257.154 238.129 260.03C238.292 263.084 237.27 274.08 241.445 274.698ZM250.232 330.447C248.6 332.383 244.92 333.521 242.663 334.595C239.537 336.082 236.337 337.405 233.226 338.922C223.019 343.903 212.855 348.462 202.457 353.036C197.082 355.4 191.773 357.913 186.528 360.552C183.78 361.934 177.726 366.778 174.565 366.901C170.941 367.042 170.856 359.724 170.058 356.979C169.387 354.682 168.142 352.894 167.304 350.717C166.963 349.827 167.228 349.153 166.708 348.272C166.116 347.268 164.457 346.459 163.604 345.594C159.983 341.915 156.98 337.232 153.921 333.088C151.119 329.292 146.339 324.539 144.995 319.887C142.352 310.742 157.707 305.68 163.582 302.006C173.868 295.573 184.204 288.965 194.01 281.818C198.476 278.562 202.849 275.177 207.338 271.95C209.433 270.445 215.239 264.588 217.927 266.675C218.928 267.452 218.947 269.602 219.365 270.729C220.278 273.192 221.664 275.342 223.068 277.551C224.315 279.507 226.088 281.53 226.867 283.713C227.796 286.316 227.753 287.79 229.453 290.125C232.545 294.371 234.005 299.27 236.88 303.599C239.652 307.773 242.315 310.852 244.128 315.516C245.168 318.189 246.809 320.56 248.259 323.018C248.942 324.179 249.656 325.32 250.268 326.522C251.364 328.67 251.751 328.642 250.232 330.447ZM162.496 366.166C160.534 367.57 157.646 365.21 155.743 365.178C154.915 365.163 154.093 365.809 153.54 365.791C151.877 365.741 150.518 364.624 148.987 364.104C141.92 361.7 133.494 361.608 127.457 356.726C115.464 347.026 121.182 327.564 123.366 314.956C123.811 312.385 124.612 308.825 122.535 306.719C120.258 304.411 116.833 305.788 114.749 307.656C112.611 309.57 111.158 312.252 109.38 314.488C106.549 318.049 103.459 321.415 100.338 324.72C89.2489 336.463 77.506 349.9 63.7884 358.518C58.0826 362.103 52.9192 366.961 46.6656 369.693C39.1437 372.979 46.8657 360.293 48.2184 358.232C57.0713 344.741 69.9595 334.062 80.7844 322.219C82.8269 319.984 85.7278 316.971 85.764 313.751C85.8193 308.916 81.5485 309.35 78.1723 310.692C75.0143 311.948 73.4317 315.073 70.8912 317.208C67.7277 319.867 64.0319 322.023 60.5109 324.168C52.9174 328.796 44.8558 332.679 36.8195 336.465C33.0603 338.236 29.283 339.969 25.5058 341.702C24.4691 342.178 18.2726 346.109 18.5687 342.739C18.6094 342.286 22.5623 337.485 23.0503 337.307C25.484 336.417 26.6909 339.103 28.8566 335.583C30.3958 333.083 30.6094 331.786 32.7824 329.889C33.1518 329.567 33.4062 328.751 33.7059 328.222C33.6688 328.421 35.3202 326.815 35.0042 327.094C35.4379 326.711 36.068 326.009 36.4202 325.549C38.1188 323.331 41.3836 323.289 42.8603 320.754C43.4234 319.789 43.1038 318.551 43.7829 317.593C44.7335 316.249 46.8259 315.677 47.9422 314.495C48.8992 313.479 49.6878 312.651 50.2818 312.03C50.691 311.602 51.409 311.302 51.8934 310.812C53.0975 309.593 53.0034 308.514 54.6892 307.489C56.203 306.57 56.8993 307.43 57.4226 305.153C59.2651 306.334 59.0342 304.606 59.782 303.368C60.7544 301.758 61.9894 301.04 63.3294 299.875C66.2773 297.311 69.0406 293.494 71.5494 290.266C77.7866 282.239 82.8324 272.853 84.6902 262.782C85.1348 260.374 85.3801 257.941 85.5567 255.499C85.6509 254.215 85.2317 251.088 86.0275 249.83C87.2615 247.878 89.6047 248.653 91.3883 247.799C91.994 247.508 92.5916 246.653 93.1602 246.459C93.9551 246.187 94.9284 246.452 95.7532 246.19C96.0737 246.089 96.148 245.146 96.6785 245.025C97.7179 244.787 98.7509 245.165 99.7786 245.179C102.028 245.209 104.248 244.813 106.405 244.096C108.367 243.444 110.009 241.949 111.967 241.41C111.767 241.466 115.194 241.738 115.009 241.545C115.173 240.701 115.337 239.857 115.501 239.013C116.802 239.922 121.238 241.12 122.614 240.913C124.826 240.579 124.36 238.585 126.235 241.204C127.297 240.278 128.358 239.352 129.419 238.426C130.223 241.8 135.761 240.163 138.271 240.349C141.808 240.613 144.594 239.949 147.817 241.18C151.737 242.68 155.175 244.26 159.397 244.669C162.347 244.954 163.574 246.341 166.464 247.197C170.348 248.346 170.655 249.614 169.44 253.583C168.455 256.801 167.604 259.282 169.043 262.584C171.596 268.439 178.533 270.851 183.006 274.897C172.529 282.251 162.184 289.485 152.055 297.322C147.811 300.604 143.298 303.892 140.881 308.83C138.652 313.388 137.388 318.865 136.047 323.744C132.97 334.93 141.637 342.458 150.54 347.379C152.383 348.396 165.072 364.323 162.496 366.166ZM145.216 379.687C144.589 377.535 144.671 376.961 146.748 376.189C147.534 375.897 150.547 375.515 151.035 376.594C152.139 379.042 146.336 379.011 145.216 379.687ZM233.506 223.786C234.25 228.56 234.982 233.335 235.647 238.12C236.013 240.764 236.844 243.102 234.875 245.096C233.756 246.228 231.042 246.651 229.613 247.254C227.553 248.124 225.545 249.121 223.564 250.159C220.031 252.009 216.339 253.123 212.852 254.792C211.335 255.516 210.436 256.944 209.123 257.929C207.327 259.277 205.142 259.933 203.288 261.215C199.975 263.508 196.939 266.222 193.628 268.53C189.877 271.146 189.095 270.306 186.988 266.441C185.097 262.971 182.827 261.388 180.104 258.668C179.046 257.61 175.255 251.581 178.474 251.062C179.299 250.928 182.149 252.168 182.795 252.565C183.776 253.167 185.344 256.59 186.142 256.648C187.579 256.753 189.419 252.661 190.315 251.584C196.184 244.519 202.64 237.531 209.441 231.351C212.966 228.148 216.669 225.229 220.665 222.643C223.507 220.805 225.987 218.229 228.789 216.485C229.382 215.972 230.053 215.605 230.807 215.385C232.269 214.721 232.818 215.294 232.454 217.104C233.292 218.875 233.201 221.832 233.506 223.786ZM105.128 217.53C106.555 216.078 108.356 214.917 109.6 213.296C110.302 212.382 110.765 210.747 111.568 210.156C112.966 209.126 114.966 209.601 116.592 208.22C118.163 206.885 119.541 205.287 121.075 203.902C124.4 200.902 127.831 198.144 131.093 195.09C132.947 193.354 134.891 191.102 136.538 189.956C136.975 189.652 137.464 189.2 137.928 188.966C138.92 188.466 139.415 188.975 140.863 188.509C141.821 188.202 142.505 186.989 143.274 186.415C145.1 185.051 147.48 184.511 149.238 183.198C150.997 181.885 151.842 179.846 154.262 178.751C157.189 177.427 159.383 178.473 161.499 175.941C162.362 174.909 162.598 173.608 163.953 172.957C165.585 172.172 167.018 173.005 168.577 172.113C169.628 171.511 170.346 170.249 171.431 169.59C173.373 168.415 175.522 168.29 177.338 166.835C178.871 165.608 178.02 165.734 179.835 165.216C180.633 164.988 181.518 164.89 182.37 164.599C185.099 163.668 189.555 162.528 191.171 159.94C191.992 161.137 192.273 161.38 193.604 161.008C194.303 160.439 194.944 159.814 195.528 159.131C195.956 159.672 196.416 159.705 196.906 159.228C199.786 158.238 202.428 156.537 205.265 155.593C205.667 155.81 206.069 156.028 206.47 156.244C207.029 156.275 207.256 156.002 207.15 155.424C208.266 155.22 209.552 154.729 210.58 154.281C212.552 153.422 214.73 151.38 217.053 152.111C220.933 153.331 221.118 161.245 221.787 164.381C223.437 172.11 225.097 179.836 226.754 187.563C227.428 190.708 228.02 193.876 228.907 196.967C229.487 198.987 230.93 201.966 230.409 204.114C229.77 206.747 227.201 207.604 225.053 208.822C222.092 210.5 219.23 212.362 216.428 214.295C204.533 222.5 195.665 233.784 187.231 245.361C185.668 243.09 181.483 239.902 178.874 238.878C177.047 238.162 175.403 238.739 173.584 237.865C172.287 237.241 171.21 236.022 169.983 235.237C162.494 230.44 153.455 226.475 144.774 224.572C126.963 220.665 109.526 226.714 92.2557 229.585C95.7604 224.767 101 221.729 105.128 217.53ZM224.35 86.7846C227.398 76.8503 232.531 67.2323 239.836 59.7795C243.519 56.0223 247.848 52.7384 252.7 50.6494C256.921 48.8334 261.941 47.0916 261.876 52.9315C261.733 65.6094 258.805 78.1432 258.447 90.841C258.099 103.284 260.182 113.272 267.712 123.299C262.941 124.407 258.172 125.531 253.419 126.71C249.809 127.605 246.066 128.609 242.651 129.224C239.275 129.83 236.17 130.226 232.832 131.367C230.582 132.136 227.057 134.487 224.622 133.977C220.575 133.129 221.533 118.61 221.325 115.122C220.741 105.271 221.443 96.2656 224.35 86.7846ZM298.317 105.913C303.846 99.2014 309.591 91.3714 318.893 90.1248C327.887 88.9198 331.202 99.7073 330.631 106.981C330.437 109.442 330.071 115.833 328.283 117.827C326.305 120.033 322.794 118.37 320.281 118.03C309.434 116.561 298.312 119.013 287.434 119.013C291.061 114.645 294.707 110.294 298.317 105.913ZM342.827 132.678C346.6 133.219 349.613 133.794 347.791 138.089C344.144 146.692 341.342 154.902 344.538 164.28C346.979 171.442 354.708 180.136 362.431 181.571C365.138 182.074 369.209 181.174 370.872 183.923C372.354 186.372 370.748 193.715 370.575 196.434C369.933 206.563 367.339 216.614 360.783 224.573C354.949 231.655 347.831 237.198 339.347 230.513C332.195 224.879 327.972 214.8 325.856 206.186C324.726 201.588 324.589 197 324.373 192.301C324.182 188.144 323.39 185.509 328.089 184.647C329.349 184.417 332.496 184.489 332.5 182.566C332.507 179.982 329.095 180.951 327.79 180.82C322.756 180.318 325.114 174.464 325.583 170.678C326.382 164.231 327.676 157.856 328.864 151.474C329.875 146.038 329.929 138.914 332.125 133.832C333.407 130.864 340.309 132.317 342.827 132.678ZM352.094 151.769C352.666 148.265 352.971 143.886 356.448 141.949C360.268 139.821 362.181 143.288 364.067 146.121C369.067 153.637 374.601 160.67 375.42 170C375.518 171.113 375.995 173.347 374.923 174.117C374.444 174.461 373.301 173.554 372.561 173.608C368.6 173.893 365.735 174.954 361.851 172.718C354.252 168.34 350.712 160.225 352.094 151.769ZM381.973 172.757C381.157 164.598 377.389 157.363 373.179 150.475C371.105 147.079 367.074 143.366 365.643 139.778C364.875 137.856 366.233 135.476 369.024 136.3C370.413 136.711 373.09 140.397 374.019 141.672C376.405 144.95 378.383 148.606 380.27 152.185C382.288 156.01 388.023 170.047 381.973 172.757ZM356.957 91.5147C357.398 83.8388 357.443 75.0242 362.414 68.654C366.267 63.7145 373.321 61.5639 379.044 59.6544C386.753 57.0813 396.013 56.6842 404.076 57.5156C411.172 58.2482 416.529 63.0798 420.907 68.3929C425.361 73.7957 428.811 80.7526 431.874 87.0394C432.64 88.6124 439.141 98.7046 434.744 98.4697C433 98.3763 431.484 94.9709 430.148 93.9654C429.102 93.1775 427.862 93.2754 426.924 92.6453C425.918 91.9698 426.136 91.3451 425.356 90.511C419.985 84.7754 415.045 88.0784 409.252 91.0994C408.981 89.0984 409.456 85.3811 407.782 83.9186C405.593 82.0047 403.306 85.0366 401.735 86.5235C400.306 87.8781 398.544 90.346 396.743 91.0786C394.405 92.0297 395.2 91.0187 393.169 90.22C389.081 88.6115 385.936 93.3715 383.869 96.1396C383.098 97.1723 381.837 99.779 380.456 100.058C379.121 100.327 378.946 99.3764 377.795 99.0246C374.539 98.0318 373.638 100.354 372.601 103.237C371.434 106.479 370.441 109.603 368.713 112.631C365.657 117.989 364.344 119.752 366.761 125.669C363.231 126.193 362.49 126.614 360.739 123.481C358.937 120.252 358.469 117.574 358.582 113.863C358.819 106.102 356.502 99.3982 356.957 91.5147ZM438.905 128.237C442.601 134.912 444.95 144.201 444.911 151.806C444.891 155.579 444.67 160.219 442.909 163.642C441.219 166.926 437.681 168.57 434.423 169.969C426.568 173.343 417.72 173.304 409.462 171.8C405.176 171.018 401.007 171.523 397.339 168.948C394.579 167.008 391.25 165.125 390.442 161.57C390.103 160.082 390.625 158.835 390.517 157.375C390.651 156.68 390.601 156.003 390.367 155.341C389.885 155.064 389.399 154.794 388.91 154.531C388.524 153.422 389.263 152.186 389.073 151.028C388.845 149.63 387.685 148.492 387.142 147.225C385.648 143.731 386.715 141.777 389.512 139.404C390.181 138.877 390.854 138.356 391.532 137.839C392.14 136.877 392.812 136.873 393.547 137.826C394.879 137.844 394.84 138.255 396.241 137.847C399.309 136.953 401.883 133.688 404.889 132.541C406.057 132.095 407.799 132.474 408.748 131.652C409.595 130.917 409.05 129.375 409.795 128.654C412.172 126.348 415.913 128.534 418.112 125.182C419.907 122.447 419.526 118.567 419.71 115.462C425.22 116.515 427.607 121.796 432.134 124.452C433.029 120.981 433.16 121.085 436.616 120.132C435.05 123.029 437.582 125.848 438.905 128.237ZM443.123 91.3905C444.138 92.6979 444.913 95.9447 443.123 96.2584V91.3905ZM447.826 103.2C456.239 103.217 461.616 113.853 464.072 120.442C466.742 127.607 469.555 137.164 464.573 144.142C462.662 146.818 460.318 147.063 457.243 146.716C453.538 146.298 451.639 145.762 453.089 141.803C455.805 134.384 453.762 124.952 448.948 118.741C455.569 117.462 451.372 111.388 448.049 109.115C444.167 106.461 441.031 103.185 447.826 103.2ZM255.755 487.713C253.776 492.963 251.764 498.197 250.103 503.606C248.529 508.732 249.441 514.508 247.484 519.437C246.28 518.841 245.935 517.783 244.888 517.14C244.243 516.742 243.119 516.585 242.565 516.147C241.613 515.397 239.304 512.6 238.678 511.515C236.516 507.762 237.958 501.661 239.114 497.804C240.544 493.027 242.988 488.44 246.269 484.676C248.571 482.038 249.841 482.877 252.918 484.177C254.738 484.945 256.612 485.436 255.755 487.713ZM240.761 529.134C239.18 532.332 236.258 534.969 234.522 538.193C232.701 541.578 231.322 545.392 229 548.487C226.635 551.643 224.51 551.115 221.254 552.476C220.085 552.964 219.593 553.869 218.653 554.576C216.889 555.898 214.955 556.71 213.101 557.887C211.783 554.651 207.755 538.41 202.629 538.758C198.174 539.06 200.453 547.563 201.027 550.072C201.513 552.191 202.068 554.343 202.807 556.389C203.553 558.455 205.878 561.55 205.018 563.815C203.925 566.693 201.205 566.504 199.843 564.404C198.704 562.648 198.126 560.261 197.286 558.35C196.549 556.67 193.175 547.475 190.259 548.901C187.45 550.274 191.819 559.189 192.55 560.94C194.316 565.168 197.702 569.232 193.227 572.62C186.434 577.764 178.069 581.636 170.459 585.344C166.017 587.509 162.023 590.355 157.361 592.112C153.03 593.744 148.026 594.022 143.839 595.898C142.809 596.36 143.5 596.935 141.995 597.203C140.733 597.427 138.528 596.825 137.175 596.837C134.933 596.858 132.687 597.029 130.45 596.747C129.189 596.589 126.32 595.208 126.774 597.488C124.991 596.993 124.301 595.193 123 594.069C121.841 593.066 120.361 592.523 119.067 591.736C116.392 590.108 114.392 588.253 113.589 585.151C111.705 577.867 115.688 570.286 120.604 565.208C123.426 562.295 126.736 559.872 129.323 556.735C130.231 555.635 130.877 554.355 132.029 553.461C133.44 552.365 135.376 552.229 136.742 551.119C137.759 550.294 138.063 548.979 139.129 548.221C140.705 547.102 142.549 547.566 144.038 546.096C144.887 545.257 147.802 541.304 147.598 540.209C148.396 540.476 149.196 540.744 149.993 541.011C150.479 538.575 154.68 535.57 156.752 534.403C157.801 533.813 159.842 533.842 160.622 533.207C161.659 532.361 161.574 530.59 162.397 529.529C164.758 526.489 169.698 525.124 172.825 523.007C176.802 520.313 180.665 517.261 184.258 514.072C191.52 507.627 197.922 500.138 203.152 491.956C205.259 488.66 207.214 485.299 208.714 481.687C209.638 479.464 210.559 475.511 212.84 474.221C215.196 472.89 220.606 474.693 223.244 474.883C227.119 475.163 233.159 474.989 236.632 476.893C240.345 478.93 237.326 480.613 235.415 483.041C232.618 486.593 230.942 490.942 229.545 495.204C228.469 498.482 228.268 501.655 227.564 504.96C226.821 508.454 226.828 513.171 228.55 516.381C230.255 519.559 242.54 525.539 240.761 529.134ZM94.2973 593.55C85.9551 582.191 92.8614 565.564 101.022 556.385C110.868 545.31 124.881 539.082 136.392 530.076C149.702 519.662 163.372 509.988 175.166 497.773C181.144 491.582 186.349 484.909 191.069 477.715C195.075 471.606 197.984 463.468 206.079 462.585C201.304 468.538 201.025 477.115 197.333 483.742C193.424 490.761 187.661 496.598 181.792 501.993C169.4 513.384 156.016 523.82 142.631 534.001C135.799 539.197 129.156 544.628 122.347 549.849C116.249 554.527 109.844 558.527 106.33 565.654C100.267 577.95 99.9053 596.166 113.331 603.741C106.413 602.361 98.6323 599.45 94.2973 593.55ZM821.64 81.3364C819.172 76.3978 814.546 74.6389 809.902 72.7068C805.356 70.8164 801.201 68.4872 796.159 67.8824C793.917 67.6131 787.594 68.2814 787.299 65.0319C787.052 62.3246 793.659 59.6073 795.182 57.5446C797.439 54.4873 798.973 49.5233 798.097 45.6618C797.267 41.9998 793.706 40.8429 790.381 40.1792C780.038 38.1166 769.041 39.6334 758.671 40.4811C759.94 38.7059 761.73 37.2498 762.747 35.1236L764.391 38.5418C765.328 36.587 766.342 34.6685 767.507 32.8379C768.294 33.7228 769.083 34.6087 769.87 35.4936C768.561 30.8977 772.965 30.9212 772.501 27.0471C772.321 25.5402 771.3 24.8801 771.051 23.6688C770.558 21.2607 772.417 19.7547 770.301 17.5216C767.946 15.0346 764.094 16.0211 761.353 16.2532C761.009 16.2831 760.51 16.964 760.065 17.0193C759.449 17.0973 759.094 16.2487 758.332 16.294C756.288 16.4146 754.486 18.0022 752.455 18.4845C743.04 20.7203 733.623 24.7079 724.586 28.4306C715.387 32.2205 706.356 36.6332 698.336 42.581C689.752 48.9467 683.552 57.1303 676.696 65.1932C673.474 68.9822 670.14 72.6207 667.687 76.9863C666.42 79.242 665.274 86.3276 662.992 87.3576C660.514 88.4764 654.284 85.3131 651.75 84.7292C645.785 83.3565 639.848 82.7835 633.733 83.0591C628.869 83.2767 623.737 83.1471 618.913 83.7418C616.113 84.0873 609.135 87.1944 608.687 90.6688C608.489 92.2128 610.258 93.4967 610.654 94.9437C611.254 97.1324 610.263 99.4507 610.954 101.644C612.363 106.116 618.902 107.761 622.756 109.169C633.514 113.102 644.42 116.152 655.29 119.672C660.013 121.203 664.051 123.639 668.329 126.085C671.878 128.112 675.115 130.141 671.531 133.948C668.136 137.554 668.559 139.01 669.571 143.978C670.637 149.221 671.007 154.523 672.397 159.715C673.781 164.886 676.367 169.825 675.863 175.296C675.359 180.749 673.103 186.35 670.993 191.348C668.862 196.396 666.509 201.385 664.193 206.352C662.051 210.947 659.732 215.606 654.776 217.567C645.313 221.31 633.224 220.716 623.362 219.357C612.169 217.814 600.606 215.198 590.02 211.204C579.842 207.364 568.647 201.474 560.229 194.515C555.732 190.798 550.862 188.044 546.09 184.717C541.253 181.346 537.581 176.8 533.344 172.764C525.04 164.853 514.817 159.402 504.294 155.053C492.465 150.164 480.252 150.672 467.717 150.143C469.69 146.266 472.23 142.561 473.162 138.245C474.133 133.75 473.43 128.866 472.815 124.375C471.621 115.634 469.359 107.941 463.842 100.881C461.318 97.6528 458.372 95.1359 454.169 94.6672C451.623 94.3825 446.918 96.3382 445.08 94.1812C444.271 93.2301 444.46 91.23 443.95 90.0586C443.499 89.0186 442.592 87.9723 442.1 86.8426C439.996 82.0137 437.371 77.746 434.75 73.1647C433.707 71.3432 432.899 68.654 431.477 67.1208C430.703 66.2867 429.708 65.9077 429.275 65.2975C428.465 64.156 428.092 62.0689 427.417 60.7805C426.261 58.5755 424.791 56.5264 423.094 54.7067C420.382 51.7982 416.891 49.2314 413.172 47.7825C411.107 46.9774 409.593 46.787 407.436 46.9049C406.804 46.9393 406.101 47.3038 405.469 47.2558C403.956 47.1406 404.193 46.5984 402.981 46.3464C394.87 44.6572 383.993 47.0273 376.385 49.9368C368.371 53.0013 361.862 57.0423 356.992 64.3038C345.029 82.1379 347.817 105.165 352.891 124.808C349.822 124.002 346.765 123.049 343.666 122.366C341.769 121.947 339.179 122.026 337.484 121.024C333.713 118.795 336.78 113.076 336.803 109.381C336.861 99.9911 332.43 85.3076 322.767 81.3419C312.698 77.2093 300.449 88.8092 294.225 95.3871C290.232 99.6067 286.601 104.155 282.78 108.526C280.11 111.582 276.584 116.453 271.903 115.655C261.694 113.914 264.808 94.4904 265.261 87.9252C265.978 77.5466 267.506 67.002 267.514 56.5971C267.519 50.2722 266.425 41.7396 258.658 40.9979C247.969 39.9779 237.843 49.701 231.61 57.1819C215.172 76.9083 211.54 102.982 215.937 127.736C216.582 131.365 218.64 135.842 214.713 138.095C209.554 141.055 202.959 142.847 197.415 145.021C185.017 149.879 173.537 156.359 161.865 162.693C150.309 168.965 138.938 175.19 128.512 183.27C118.119 191.325 107.831 199.86 98.3634 208.992C93.6445 213.544 89.0913 218.293 84.7953 223.249C80.7527 227.911 77.4779 233.206 73.084 237.563C70.0935 240.53 64.5915 244.508 63.9342 249.034C63.4027 252.687 69.5639 255.22 72.3443 256.908C74.2502 258.066 75.5711 258.03 75.7088 260.094C75.879 262.668 73.1664 266.793 72.2004 269.247C69.7395 275.507 66.5227 280.693 62.2945 285.902C52.9282 297.442 41.6099 307.226 30.8675 317.477C20.8856 327.002 11.1046 336.377 3.78816 348.196C1.99548 351.092 -2.46628 357.039 1.77366 359.749C2.871 360.451 6.23814 361.006 7.3554 360.253C8.73974 359.319 8.03806 357.912 9.6741 356.976C9.26396 360.123 23.5537 353.974 24.6656 353.404C27.6687 351.865 30.3849 350.061 33.4551 348.682C35.2559 347.872 35.4741 346.745 36.8684 345.842C37.6135 345.359 37.6226 346.007 38.6203 345.707C39.5185 345.435 41.6262 345.332 42.2962 344.467C42.3143 344.442 43.0459 342.348 42.4239 342.781C44.8585 341.086 46.2971 343.651 44.8358 346.059C40.5153 353.174 35.0522 358.409 33.3591 366.96C32.7444 370.066 31.695 375.832 33.5909 378.663C33.6597 378.766 34.298 378.466 34.3759 378.576C34.4483 378.68 35.1436 379.647 35.4297 379.922C37.1047 381.525 36.997 382.239 39.7928 382.172C41.0332 382.142 43.5058 381.983 44.6412 381.423C45.495 381.002 45.9124 379.963 46.5688 379.594C47.2333 379.218 47.1546 379.023 47.7784 378.805C47.906 378.759 48.1514 379.85 48.394 379.805C49.7259 379.554 50.2999 378.758 51.4316 378.117C54.6928 376.271 57.8898 374.241 60.9953 372.382C64.1207 370.511 66.4557 367.902 69.5693 365.729C72.8767 363.42 75.582 361.65 78.1262 358.446C79.8871 356.227 81.9885 355.419 83.171 354.327C84.5743 353.03 86.9926 348.024 89.2543 347.429C90.2837 347.157 91.1076 348.069 91.6717 347.695C92.3073 347.275 91.6147 346.47 91.9334 345.997C92.5282 345.114 92.6024 344.967 93.6138 344.157C94.9094 343.121 96.5011 342.843 97.5884 341.493C98.7971 339.99 98.9628 338.306 100.45 336.899C104.028 333.513 107.213 329.946 111.004 326.665C109.54 334.83 108.089 342.937 109.224 351.241C110.323 359.289 113.738 362.893 120.441 366.977C121.917 367.877 123.465 369.185 125.05 369.822C126.013 370.21 127.464 369.979 128.182 370.264C130.613 371.228 129.786 373.201 130.119 375.424C130.636 378.87 133.803 381.522 135.847 384.207C137.566 386.465 140.666 391.602 143.542 392.382C146.139 393.086 148.589 390.048 150.752 388.754C154.013 386.804 157.566 385.406 161.005 383.812C167.722 380.7 174.212 376.986 180.854 373.694C183.888 372.191 186.952 371.579 190.163 370.608C194.02 369.442 197.311 367.211 201.01 365.689C207.661 362.952 214.034 359.686 220.645 356.812C234.328 350.864 249.251 346.778 261.427 337.854C266.935 333.817 274.027 333.387 279.456 329.464C285.114 325.374 281.644 319.12 279.222 314.101C272.603 300.39 268.653 286.151 259.541 273.66C254.807 267.17 250.433 260.464 246.304 253.565C242.652 247.459 242.726 240.543 241.81 233.646C241.196 229.037 240.621 224.408 239.871 219.819C239.396 216.902 237.861 213.227 239.718 210.584C241.713 207.743 246.452 206.534 249.447 205.035C253.169 203.172 256.773 201.169 260.635 199.592C269.46 195.99 278.755 193.497 288.013 191.296C290.773 190.64 302.59 185.947 304.839 188.696C302.076 190.543 301.27 193.896 300.03 196.771C298.185 201.054 296.28 205.135 294.934 209.623C292.152 218.904 289.786 228.332 287.518 237.75C285.265 247.1 282.581 256.524 281.892 266.157C281.539 271.074 281.781 275.994 281.772 280.916C281.763 286.169 280.674 291.321 280.868 296.587C280.998 300.089 281.292 304.296 283.343 307.283C285.243 310.051 288.475 310.36 291.291 311.84C295.007 313.793 296.462 314.626 296.496 318.876C296.537 323.829 296.217 328.693 296.68 333.643C298.294 350.88 304.084 371.335 315.641 384.643C316.41 385.528 338.833 413.814 341.315 409.673C343.025 411.698 345.581 412.438 347.685 414.204C350.992 416.978 354.237 419.196 356.971 422.632C361.948 428.885 366.179 436.213 367.424 444.209C368.493 451.09 367.85 459.317 363.97 465.281C360.077 471.264 351.755 475.189 345.473 478.135C337.215 482.006 328.835 482.441 319.869 481.471C315.445 480.992 311.056 480.244 306.664 479.538C304.837 479.244 302.706 479.243 300.976 478.554C299.121 477.817 298.493 477.001 296.641 476.91C295.258 476.842 294.502 477.148 293.04 476.843C291.23 476.465 289.265 475.777 287.46 475.313C285.453 474.796 283.807 474.061 281.958 473.113C280.246 472.235 278.317 472.065 276.669 471.234C273.829 469.8 272.954 467.403 269.111 468.732C265.055 470.134 265.903 473.643 263.314 476.048C261.013 478.187 258.163 476.21 255.873 474.939C252.503 473.067 249.003 471.51 245.415 470.093C241.539 468.563 237.58 467.232 233.546 466.178C229.134 465.026 224.288 464.798 220.038 463.12C216.303 461.647 214.696 458.796 211.99 456.133C209.144 453.332 205.283 452.265 201.338 452.514C194.154 452.969 189.247 460.737 185.452 466.131C174.849 481.201 163.129 494.04 148.956 505.879C142.184 511.533 134.551 516.343 128.002 522.212C125.24 524.688 123.235 527.009 119.963 528.853C115.666 531.274 111.767 534.312 107.659 537.043C91.592 547.721 79.8066 563.278 84.2502 583.591C86.2502 592.734 90.2448 599.152 97.7088 604.654C101.098 607.151 104.199 609.229 108.516 609.084C112.592 608.948 116.188 608.806 113.787 603.955C116.829 604.897 119.375 607.222 122.696 608.413C126.522 609.783 131.5 610.638 135.562 610.721C142.067 610.854 149.718 607.424 155.414 605.97C157.006 605.565 160.075 604.899 161.889 603.402C163.332 602.212 163.019 600.803 165.203 600.238C168.065 599.497 169.155 600.363 171.896 598.629C175.872 596.111 180.184 594.616 184.309 592.296C189.866 589.17 195.208 585.645 200.713 582.426C201.447 584.449 205.76 596.472 208.424 590.676C210.742 585.63 203.216 581.311 207.791 576.202C212.156 571.331 213.068 576.453 217.302 578.714C223.18 581.854 222.298 575.989 220.589 572.516C219.906 571.127 218.469 569.032 218.892 567.412C219.708 564.283 222.239 566.119 224.229 566.438C227.363 566.942 229.896 566.079 232.249 563.977C234.211 562.223 237.456 560.709 238.642 558.398C239.235 557.241 239.339 555.652 239.833 554.423C240.483 552.804 240.947 553.197 241.184 551.188C240.957 550.149 240.867 549.098 240.913 548.033C241.428 547.929 241.941 547.825 242.455 547.72C242.47 547.647 242.506 545.621 242.299 545.922C242.779 545.225 243.81 544.93 244.403 543.962C244.948 543.072 244.441 541.366 244.66 540.315C245.104 538.188 246.314 536.471 247.303 534.575C249.395 543.428 248.79 552.661 250.789 561.519C252.431 568.791 256.17 575.31 260.532 581.273C262.554 584.037 265.231 585.998 267.347 588.625C269.138 590.847 270.034 592.804 272.677 594.118C274.436 594.99 276.414 595.44 278.227 596.193C279.385 596.676 282.023 598.895 283.11 598.856C282.163 598.891 284.89 598.975 284.258 598.867C284.305 598.875 283.935 597.68 284.264 597.699C288.218 601.443 292.347 601.452 296.922 603.779C299.018 604.845 299.802 604.779 302.036 605.173C304.931 605.684 307.367 607.335 310.139 607.511C314.406 607.782 319.212 608.356 323.661 608.198C324.871 608.154 327.146 607.374 328.095 608.433C328.722 609.132 327.533 614.185 327.458 615.342C326.676 627.476 328.297 640.215 333.416 651.318C337.661 660.524 342.187 671.415 349.694 678.445C358.016 686.237 369.673 691.729 380.803 693.831C393.126 696.157 405.341 694.415 417.702 693.692C430.244 692.958 441.848 691.179 453.943 687.543C465.191 684.162 475.845 679.755 486.608 675.107C493.928 671.946 503.209 667.397 499.372 657.802C498.444 655.482 494.846 649.031 491.662 652.214C488.845 655.03 493.554 660.359 495.685 662.148C479.622 673.351 460.13 677.056 441.335 681.025C431.013 683.204 420.844 683.112 410.345 683.143C401.448 683.168 392.552 683.424 383.713 682.181C375.716 681.057 366.405 678.948 360.454 673.101C354.23 666.983 348.338 659.679 344.089 652.048C339.427 643.672 338.296 634.616 337.919 625.171C337.721 620.198 337.498 615.164 338.018 610.203C338.396 606.602 340.234 606.174 341.146 603.329C343.253 606.281 344.64 605.19 347.227 603.465C348.899 608.134 348.154 612.986 347.866 617.801C347.587 622.492 348.212 627.248 348.786 631.906C349.761 639.825 353.554 648.084 358.367 654.459C360.543 657.342 363.804 658.559 366.754 660.549C370.515 663.087 374.415 665.45 378.341 667.728C385.734 672.017 393.803 675.684 402.136 676.33C405.055 676.557 407.178 678.078 410.656 677.865C412.721 677.739 414.801 677.032 416.862 677.088C418.927 677.144 420.701 677.805 422.822 677.651C431.637 677.013 440.724 674.125 449.452 672.538C458.902 670.821 468.41 668.972 477.431 665.582C481.34 664.112 484.568 662.217 486.75 658.525C488.308 655.887 487.9 651.157 490.804 649.579C488.902 647.125 489.609 646.692 491.252 644.498C492.019 643.475 494.495 640.767 491.492 640.816C492.405 636.863 490.878 633.04 490.227 629.173C489.947 627.503 490.023 624.974 488.99 623.536C488.387 622.698 487.384 622.682 486.845 622.064C486.288 622.052 485.852 621.82 485.54 621.369C485.503 620.709 485.812 620.306 486.466 620.162C486.315 618.855 487.282 619.324 486.315 617.281C484.996 614.491 482.493 612.062 480.123 610.165C478.104 608.549 476.617 605.679 474.286 604.817C471.253 603.694 468.072 602.475 464.885 601.433C457.659 599.07 450.497 598.167 442.915 599.477C439.443 600.077 436.023 600.813 432.669 601.886C430.707 602.515 427.706 604.211 425.968 602.382C425.371 601.755 424.125 596.425 424.203 595.849C424.514 593.537 429.234 592.604 430.956 591.797C433.588 590.564 438.461 589.246 440.132 586.799C440.833 585.773 440.041 581.416 440.156 581.338C441.26 580.594 445.894 591.174 447.156 591.896C448.981 592.939 454.109 591.56 455.995 591.353C461.624 590.734 467.346 590.383 472.859 589.04C483.431 586.465 493.811 582.482 504.099 578.962C523.671 572.267 542.566 563.442 560.161 552.481C568.378 547.361 576.541 540.818 582.794 533.384C585.614 530.031 587.607 526.055 590.486 522.767C593.809 518.975 592.761 515.553 594.25 510.802C597.265 501.187 600.926 492.452 602.567 482.375C604.257 472 604.954 461.407 604.486 450.903C603.56 430.143 602.553 410.46 593.431 391.385C585.071 373.904 574.238 356.824 561.359 342.351C558.365 338.988 555.202 335.783 551.524 333.167C547.565 330.349 543.207 328.139 539.623 324.811C536.682 322.08 534.222 318.863 531.146 316.27C527.369 313.09 522.878 311.684 518.455 309.652C514.215 307.706 510.348 305.174 506.012 303.402C503.374 302.325 500.701 301.33 497.95 300.578C495.918 300.022 493.217 299.987 491.358 298.931C488.417 297.26 485.408 292.398 483.487 289.651C480.684 285.644 479.165 280.982 477.832 276.323C476.209 270.655 474.701 264.952 473.115 259.273C472.572 257.333 470.546 250.58 474.587 252.219C475.769 252.698 476.878 254.829 477.789 255.739C479.515 257.467 481.646 259.011 483.787 260.186C487.241 262.081 490.838 264.363 494.15 265.669C497.069 266.82 500.071 269.076 502.792 270.699C503.205 270.946 503.327 271.794 503.859 272.031C505.113 272.588 505.949 271.052 507.133 271.428C508.751 271.942 509.017 273.467 509.915 274.68C511.217 276.439 511.891 276.579 513.88 277.484C516.092 278.491 517.716 280.481 519.873 281.468C522.493 282.665 528.259 281.736 528.653 285.865C532.725 283.205 537.832 288.37 540.373 291.05C542.931 287.122 547.462 291.721 551.333 290.417C549.191 293.395 549.58 293.099 552.96 293.467C555.813 293.779 557.521 295.674 560.341 296.775C562.294 297.537 564.452 298.819 566.482 299.356C568.401 299.864 569.855 298.725 571.526 299.01C572.679 299.206 573.774 300.203 574.87 300.475C576.26 300.821 578.239 301.241 579.81 301.614C581.722 302.068 583.623 301.651 585.529 302.012C587.753 302.433 589.673 303.758 591.931 304.188C594.449 304.667 597.067 304.347 599.57 304.958C601.851 305.514 603.238 306.154 605.601 306.177C609.126 306.212 613.06 306.678 616.54 306.28C618.394 306.068 619.42 305.128 621.518 306.047C622.917 306.66 623.755 308.553 625.662 307.686C623.649 306.879 625.416 303.737 627.635 306.144C628.16 304.794 628.499 304.041 629.959 303.598C629.886 304.919 629.67 306.245 631.354 306.522C631.483 305.602 631.613 304.684 631.742 303.764C635.403 306.552 636.27 307.536 639.725 304.134C639.633 305.248 639.163 306.508 640.295 307.297C641.019 306.092 641.744 304.888 642.469 303.684C643.693 307.57 649.536 306.229 652.368 305.54C653.467 305.273 656.501 304.851 657.218 303.95C657.715 303.326 657.654 302.837 657.838 302.454C658.001 302.114 656.139 301.278 657.724 300.79C658.917 300.421 659.847 303.038 661.248 302.934C662.498 302.841 663.003 300.725 663.902 300.296C663.988 300.256 664.598 301.15 665.021 300.954C665.678 300.65 666.052 299.849 666.778 299.565C668.349 298.95 670.381 299.103 672.14 298.374C674.372 297.45 676.621 297.009 678.899 296.247C681.787 295.282 683.097 293.385 685.441 291.833C685.991 291.469 686.563 291.681 687.103 291.424C687.83 291.077 688.592 290.264 689.458 289.881C692.172 288.677 694.491 287.858 697.066 286.197C699.362 284.715 702.393 283.621 704.437 281.843C706.138 280.363 707.056 278.203 708.767 276.697C711.224 274.535 717.573 271.824 716.543 267.6C720.653 268.228 721.659 265.567 723.167 262.632C724.602 259.84 727.543 259.003 729.466 256.457C730.297 255.357 731.635 253.831 732.094 252.575C732.368 251.828 731.682 251.048 731.867 250.538C732.72 248.192 736.009 247.168 737.532 245.052C739.469 242.36 740.091 238.956 741.707 236.191C742.025 235.647 742.808 235.324 743.111 234.744C743.306 234.371 742.9 233.447 743.136 233.081C743.7 232.212 744.586 231.912 745.152 231.107C746.522 229.158 746.772 226.387 748.003 224.177C748.306 223.633 749.362 222.113 749.495 221.789C749.94 220.701 749.806 219.986 750.035 218.775C750.103 218.411 750.807 216.304 750.951 216.003C751.403 215.063 751.84 214.924 752.531 213.892C754.26 211.309 755.333 207.252 755.475 204.116C755.536 202.786 755.093 201.411 755.575 200.142C755.99 199.045 757.27 198.368 757.753 197.219C759.019 194.206 758.812 189.946 759.161 186.723C759.539 183.21 760.663 179.747 760.973 176.26C761.124 174.572 760.332 173.077 760.39 171.487C760.457 169.666 761.402 169.326 761.766 167.811C762.181 166.081 761.573 164.088 761.944 162.233C762.29 160.507 762.792 158.91 762.936 157.14C763.308 152.53 762.782 147.707 762.582 143.095C762.505 141.305 762.266 139.438 762.739 137.686C763.12 136.276 764.676 134.699 764.625 133.17C764.466 128.444 760.687 132.534 758.514 132.21C755.988 131.833 755.523 126.165 754.858 124.015C753.231 118.763 751.605 113.511 749.978 108.26C757.731 106.241 765.793 106.823 773.709 106.278C781.487 105.743 789.081 104.055 796.623 102.154C802.991 100.55 809.958 99.6194 815.68 96.1931C820.485 93.3171 824.448 86.9523 821.64 81.3364Z" fill="#161D29"/>
<path fill-rule="evenodd" clip-rule="evenodd" d="M68.7185 183.003C71.8203 181.391 71.0378 179.163 73.3156 177.093C86.0624 165.509 101.021 155.394 116.013 147.042C131.808 138.242 149.531 134.516 165.675 126.718C167.847 125.669 170.668 124.029 169.858 121.107C168.911 117.693 165.66 119.264 163.343 120.07C155.621 122.755 147.403 123.766 139.571 126.125C122.853 131.16 107.197 139.843 93.0348 150.006C84.7956 155.917 76.9025 162.453 69.8669 169.795C67.2756 172.497 63.8206 175.65 63.1466 179.543C62.3117 184.361 65.1605 184.853 68.7185 183.003Z" fill="#C2BCFA"/>
<path fill-rule="evenodd" clip-rule="evenodd" d="M117 485.887C116.925 481.629 112.288 483.177 109.903 483.749C100.205 486.077 91.5363 487.859 82.9539 493.25C67.0261 503.254 54.9576 518.452 47.1498 535.271C46.1104 537.509 41.9243 544.602 45.2793 546.713C47.4911 548.106 48.8328 544.051 49.6593 542.545C53.8644 534.883 59.495 528.1 65.1565 521.442C77.7274 506.66 92.8379 497.278 110.917 490.428C113.135 489.588 117.055 488.982 117 485.887Z" fill="#C2BCFA"/>
<path fill-rule="evenodd" clip-rule="evenodd" d="M652.98 381.309C649.626 374.56 644.201 366.232 636.696 363.452C632.543 361.914 630.086 364.459 631.319 368.712C632.299 372.094 635.571 373.746 638.014 375.989C644.301 381.761 648.173 390.378 650.469 398.38C652.896 406.839 653.38 416.018 653.337 424.775C653.314 429.399 652.08 433.417 651.41 437.917C651.147 439.686 650.698 443.586 652.731 444.69C657.236 447.138 659.317 434.357 659.777 431.899C661.472 422.834 661.308 414.487 659.881 405.437C658.575 397.161 656.743 388.879 652.98 381.309Z" fill="#C2BCFA"/>
<path fill-rule="evenodd" clip-rule="evenodd" d="M640.093 56.9911C641.926 54.5196 640.589 51.0597 641.135 48.2418C641.706 45.2883 643.411 42.3005 644.852 39.7169C647.968 34.1391 651.442 28.6616 655.144 23.4591C658.967 18.0866 663.63 13.5089 667.693 8.34709C669.067 6.60086 671.502 4.10495 670.908 2.00333C669.947 -1.39961 667.854 0.258904 666.176 1.68501C657.006 9.48291 648.931 19.0976 642.408 29.1961C639.313 33.9889 636.388 39.2376 635.364 44.923C634.835 47.8593 634.83 50.9231 635.701 53.798C636.248 55.6048 637.891 59.9609 640.093 56.9911Z" fill="#C2BCFA"/>
<path fill-rule="evenodd" clip-rule="evenodd" d="M74.9847 472.941C79.5796 472.516 84.2009 472.365 88.8067 472.128C92.2156 471.953 96.0507 472.163 99.1797 470.521C102.329 468.87 100.96 466.395 98.3418 466.029C96.8368 465.818 94.2967 466.834 92.6836 466.904C90.9369 466.979 89.1811 466.925 87.4335 466.932C82.3242 466.951 76.8187 466.912 71.8929 468.61C70.2844 469.165 67.847 470.021 67.1854 471.861C65.7703 475.794 72.8536 473.138 74.9847 472.941Z" fill="#C2BCFA"/>
<path fill-rule="evenodd" clip-rule="evenodd" d="M115.22 113C121.893 112.2 128.343 110.2 134.917 108.925C141.168 107.714 142.232 102.786 134.832 103.007C132.347 103.081 108.391 107.626 115.22 113Z" fill="#C2BCFA"/>
<path fill-rule="evenodd" clip-rule="evenodd" d="M666.626 360.163C662.143 359.041 664.462 364.014 665.849 365.552C668.415 368.395 669.817 370.524 670.579 374.315C671.024 376.522 670.607 381.505 672.48 383.193C674.325 384.854 674.452 383.751 674.78 381.7C675.703 375.919 673.858 361.975 666.626 360.163Z" fill="#C2BCFA"/>
<path fill-rule="evenodd" clip-rule="evenodd" d="M617.409 45.4703C618.679 44.1241 617.317 38.2699 617.467 36.5542C617.65 34.4754 618.142 32.7162 618.762 30.7654C619.063 29.8195 620.577 26.4807 619.761 25.444C618.632 24.007 616.753 26.4353 616.158 27.3912C614.225 30.5021 613.773 35.6891 614.095 39.1922C614.21 40.4603 614.977 48.0457 617.409 45.4703Z" fill="#C2BCFA"/>
<path fill-rule="evenodd" clip-rule="evenodd" d="M353.441 539.135C353.652 535.818 356.845 533.52 356.854 529.994C356.866 526.032 354.2 524.316 350.88 526.891C348.878 528.444 347.319 532.227 344.611 532.722C339.18 533.718 337.05 523.962 331.7 525.091C327.069 526.068 329.503 534.023 330.9 536.708C332.381 539.553 335.071 541.549 334.195 545.049C333.155 549.205 329.588 551.601 330.976 556.345C333.554 565.16 339.15 556.918 342.516 554.148C344.914 552.173 346.363 552.524 348.692 554.46C351.882 557.112 354.32 558.913 358.189 560.7C361.601 562.276 364.892 563.375 364.998 558.088C365.082 553.929 361.942 549.791 359.186 546.97C356.898 544.629 353.207 542.826 353.441 539.135Z" fill="#161D29"/>
<path fill-rule="evenodd" clip-rule="evenodd" d="M293.657 525.984C289.665 521.728 284.623 532.584 281.397 533.785C276.168 535.732 274.964 525.296 270.15 525.624C266.403 525.88 266.699 531.25 267.515 533.699C268.393 536.336 271.021 538.491 271.461 541.193C272.138 545.333 264.305 553.61 269.771 557.609C274.438 561.024 276.176 549.487 282.01 554.194C284.874 556.504 292.888 565.103 296.859 560.824C301.551 555.767 290.391 547.131 288.354 543.285C285.598 538.077 299.507 532.221 293.657 525.984Z" fill="#161D29"/>
<path fill-rule="evenodd" clip-rule="evenodd" d="M390.367 378.107C389.222 377.602 387.372 378.437 386.133 378.384C384.803 378.328 383.418 377.723 382.106 377.5C379.255 377.012 374.242 377.717 372.219 375.176C370.155 372.584 371.724 367.38 370.842 364.227C370.362 362.512 369.807 360.396 367.498 361.161C364.818 362.048 364.883 366.969 364.563 369.127C364.092 372.312 363.712 374.741 360.511 375.874C358.141 376.712 355.648 376.29 353.732 378.237C352.328 379.663 351.381 382.268 352.48 384.132C354.13 386.932 357.704 385.482 360.183 386.367C363.964 387.717 363.065 393.894 363.84 397.441C364.336 399.72 365.427 406.102 368.7 405.999C373.162 405.86 371.429 396.894 371.182 394.277C370.931 391.622 370.334 389.37 373.297 388.544C375.8 387.848 379.296 389.141 381.881 389.125C385.146 389.105 388.993 388.285 390.963 385.359C392.088 383.686 392.801 379.181 390.367 378.107Z" fill="#161D29"/>
<path fill-rule="evenodd" clip-rule="evenodd" d="M554.341 488.455C561.436 489.067 557.136 497.81 561.844 501.285C566.336 504.601 566.94 495.449 566.939 492.836C566.936 486.506 574.634 488.846 579.321 487.798C583.32 486.905 587.687 482.751 582.911 479.213C579.464 476.659 573.748 477.844 569.746 477.168C564.323 476.251 565.934 472.63 565.814 468.457C565.771 466.927 565.244 461.473 563.268 461.043C559.649 460.256 559.434 470.415 559.19 472.348C558.158 480.527 552.54 475.544 548.077 479.644C542.244 485.004 550.114 488.09 554.341 488.455Z" fill="#161D29"/>
<path fill-rule="evenodd" clip-rule="evenodd" d="M216.915 335.965C205.831 345.05 193.244 343.748 183.099 333.968C178.81 329.832 176.218 325.664 176.602 319.612C176.946 314.166 178.545 308.148 182.906 304.47C186.578 301.37 193.504 300.258 198.154 299.824C204.671 299.218 210.502 302.766 215.01 307.2C218.936 311.061 223.525 315.98 224.13 321.712C224.767 327.743 221.331 332.344 216.915 335.965ZM218.601 299.812C208.658 290.237 191.027 291.198 180.762 299.93C169.24 309.731 167.27 328.143 178.343 338.881C190.012 350.197 205.416 348.976 217.768 339.589C224.394 334.555 227.989 328.094 228.912 319.805C229.783 311.971 224.038 305.047 218.601 299.812Z" fill="#C2BCFA"/>
<path fill-rule="evenodd" clip-rule="evenodd" d="M410.855 135C409.739 138.626 410.512 142.489 410.71 146.183C407.558 144.211 405.596 140.695 402.212 139.061C400.589 143.545 408.676 156.37 413.766 152.166C418.423 148.319 414.986 137.584 410.855 135Z" fill="#161D29"/>
<path fill-rule="evenodd" clip-rule="evenodd" d="M427.393 157.111C424.884 158.046 422.552 157.787 420.077 158.266C418.445 158.582 418.234 157.654 418.022 159.523C417.572 163.512 424.007 165.055 426.906 164.999C430.444 164.93 434.321 162.551 433.979 158.678C433.624 154.643 430.121 156.095 427.393 157.111Z" fill="#161D29"/>
<path fill-rule="evenodd" clip-rule="evenodd" d="M429.449 140.346C428.311 139.312 425.688 135.408 423.763 136.076C422.288 136.588 423.33 138.351 423.763 139.233C425.383 142.541 428.563 145.356 431.103 148.01C429.222 148.678 425.598 149.108 426.555 152.004C427.435 154.664 431.422 154.255 433.333 153.135C439.878 149.298 432.724 143.319 429.449 140.346Z" fill="#161D29"/>
<path fill-rule="evenodd" clip-rule="evenodd" d="M436.057 134.066C436.505 135.893 436.745 137.617 435.757 139.33L430.306 129.553C425.922 131.353 433.612 145.439 438.091 143.88C441.189 142.802 439.701 136.181 439.212 134.098C438.95 132.983 438.327 129.437 436.781 129.077C433.74 128.369 435.725 132.719 436.057 134.066Z" fill="#161D29"/>
<path fill-rule="evenodd" clip-rule="evenodd" d="M211.169 331.267C208.641 329.403 204.451 333.768 201.778 333.784C196.375 333.813 199.317 327.476 195.936 325.422C194.173 324.35 186.791 325.431 187.957 320.995C188.658 318.327 191.401 320.253 192.904 318.623C194.79 316.58 192.102 314.95 190.429 314.111C191.163 313.132 195.393 312.702 196.456 313.379C198.29 314.55 198.184 318.062 199.867 319.87C202.051 317.082 200.866 313.579 203.192 311.076C204.095 310.103 206.737 309.372 205.71 307.637C205.114 306.629 202.505 306.962 201.612 306.161C200.833 305.462 200.872 303.208 199.614 303.021C197.559 302.715 197.609 305.855 196.992 306.762C195.135 309.487 186.976 308.547 190.358 314.075C188.105 312.951 181.959 312.062 183.152 315.987C183.457 316.991 184.619 317.605 184.907 318.749C185.157 319.74 184.607 321.153 184.555 322.148C184.457 324.035 184.306 326.241 185.702 327.759C187.621 329.845 190.185 328.327 192.243 329.235C195.048 330.47 194.037 333.039 195.516 335.286C197.453 338.225 200.431 337.322 203.173 336.433C206.443 335.372 206.96 335.276 209.352 338C210.446 336.586 213.443 332.944 211.169 331.267Z" fill="#C2BCFA"/>
<path fill-rule="evenodd" clip-rule="evenodd" d="M215.566 319.791C212.928 319.303 213.967 311.441 210.757 314.858C209.553 316.137 210.786 318.636 209.443 320.007C208.541 320.929 207.397 320.385 206.495 320.99C205.683 321.532 205.478 322.572 205 323.365C206.697 324.129 208.009 324.228 209.821 323.895C209.821 325.26 208.914 329.278 211.243 328.985C213.409 328.711 212.797 324.678 213.9 323.424C215.019 322.15 219.531 322.741 219.951 320.95C220.47 318.732 216.719 320.004 215.566 319.791Z" fill="#C2BCFA"/>
</svg>
